<?xml version="1.0" standalone="no"?>
<!DOCTYPE svg PUBLIC "-//W3C//DTD SVG 1.1//EN" "http://www.w3.org/Graphics/SVG/1.1/DTD/svg11.dtd" >
<svg xmlns="http://www.w3.org/2000/svg">
<metadata>
<json>
<![CDATA[
{
	"fontFamily": "icon-font",
	"description": "Font generated by IcoMoon.",
	"majorVersion": 1,
	"minorVersion": 0,
	"version": "Version 1.0",
	"fontId": "icon-font",
	"psName": "icon-font",
	"subFamily": "Regular",
	"fullName": "icon-font"
}
]]>
</json>
</metadata>
<defs>
<font id="icon-font" horiz-adv-x="1024">
<font-face units-per-em="1024" ascent="960" descent="-64" />
<missing-glyph horiz-adv-x="1024" />
<glyph unicode="&#x20;" horiz-adv-x="512" d="" />
<glyph unicode="&#xe900;" glyph-name="marker" data-tags="marker" d="M220 226.076c0-160.205 129.871-290.076 290.076-290.076s290.076 129.871 290.076 290.076v443.848c0 160.205-129.871 290.076-290.076 290.076s-290.076-129.871-290.076-290.076v-443.848z" />
<glyph unicode="&#xe901;" glyph-name="shirt" data-tags="shirt" d="M782.331 807.249h-27.231c0 0-0.013 4.025 0 9.325 0.008 3.13 0.108 6.706 0 10.158-0.29 9.298-1.059 14.461-1.059 14.461h28.29c40.663 0 73.669-32.944 73.669-73.466v-758.261c0-40.57-33.005-73.466-73.684-73.466h-544.632c-40.67 0-73.684 32.943-73.684 73.466v758.261c0 40.574 33.017 73.466 73.715 73.466h23.78c0 0-0.595-4.265-0.86-12.328s0-21.617 0-21.617h-22.92c-21.911 0-39.683-17.704-39.683-39.521v-758.261c0-21.779 17.78-39.521 39.651-39.521h544.632c21.889 0 39.651 17.704 39.651 39.521v758.261c0 21.78-17.775 39.521-39.636 39.521zM283.115 494.586v329.686c0 62.307 53.47 113.098 119.662 113.098h209.98c66.25 0 119.662-50.777 119.662-113.184v-332.427c0-9.781-3.98-11.898-13.392-6.414l-157.3 91.662-5.351-10.989c-0.195-0.4-0.711-1.358-1.543-2.733l9.714-5.844 10.288-4.767 102.901 220.945c32.837 70.506-7.911 129.805-88.419 129.805h-169.859c-80.507 0-121.029-59.309-87.871-129.729l104.859-222.698 4.837 14.744-143.833-78.232c-9.834-5.349-14.335-2.882-14.335 7.075zM452.146 545.875l9.378 5.101-109.4 232.341c-25.92 55.049 3.070 97.479 67.335 97.479h169.859c64.312 0 93.52-42.506 67.842-97.642l-102.901-220.945 20.003-10.61c1.202 1.987 2.041 3.543 2.523 4.534l-10.204 4.943-5.723-9.77 146.724-85.5c24.209-14.107 47.526-1.699 47.526 25.953v332.427c0 75.155-63.807 135.814-142.35 135.814h-209.98c-78.481 0-142.35-60.669-142.35-135.728v-329.686c0-27.56 23.289-40.321 47.886-26.942l143.833 78.232zM351.675 784.269c-25.763 54.716 0.823 96.527 61.365 96.527h182.695c60.568 0 87.362-41.946 61.812-96.808l-107.484-230.787c-0.472-1.067-1.371-2.844-2.785-5.229-2.408-4.063-5.318-8.133-8.695-11.895-9-10.026-19.444-15.893-31.418-16.13-12.131-0.24-23.541 5.806-33.89 16.457-3.734 3.843-7.035 7.996-9.842 12.142-1.653 2.441-2.738 4.272-3.215 5.173l-108.543 230.55zM456.982 520.655c14.334-14.752 31.252-23.717 50.633-23.333 19.060 0.377 35.020 9.343 47.872 23.66 7.616 8.485 12.618 16.923 15.251 22.903l107.386 230.57c32.533 69.854-5.23 128.971-82.389 128.971h-182.695c-77.173 0-114.728-59.060-81.901-128.776l108.78-231.025c3.333-6.32 8.955-14.624 17.063-22.969zM430.59-29.904v468.004c0 6.249 5.079 11.315 11.344 11.315s11.344-5.066 11.344-11.315v-468.004h-22.689zM566.721-31.319v468.004c0 6.249 5.079 11.315 11.344 11.315s11.344-5.066 11.344-11.315v-468.004h-22.689zM510 100.066c-12.531 0-22.689 10.132-22.689 22.63s10.158 22.63 22.689 22.63c12.531 0 22.689-10.132 22.689-22.63s-10.158-22.63-22.689-22.63zM510 315.050c-12.531 0-22.689 10.132-22.689 22.63s10.158 22.63 22.689 22.63c12.531 0 22.689-10.132 22.689-22.63s-10.158-22.63-22.689-22.63z" />
<glyph unicode="&#xe902;" glyph-name="lapels-buttons" data-tags="lapels-buttons" d="M582.62 82.216c-3.842-5.14-7.057-8.673-9.18-10.351 1.208 0.955 4.363 2.027 10.044-0.634 5.749-2.693 6.961-5.904 6.985-7.514-0.041 2.674 0.666 7.373 2.228 13.581l187.496 745.377c0.617 2.455 2.35 3.386 4.453 2.596l1.542-0.498c1.142-0.31 3.772-1.147 7.759-2.617 6.925-2.554 14.941-5.956 23.917-10.313 25.974-12.608 54.207-30.321 83.652-54.006 29.289-23.559 50.924-46.242 66.078-67.146 5.172-7.134 9.155-13.481 12.096-18.931 1.633-3.027 2.508-4.931 2.766-5.6-0.152 0.155 0.054 1.081 1.439 2.189l-132.257-105.745c-11.839-9.466-14.695-26.715-6.542-39.599l30.861-48.773c-0.393 0.621-293.338-392.016-293.338-392.016zM874.196 541.418c1.216-1.922 0.84-4.197-1.053-5.71l132.257 105.745c11.247 8.992 14.929 25.577 8.568 38.51l-15.45-7.6 16.062 6.203c-2.598 6.728-8.588 17.829-19.105 32.337-16.959 23.394-40.715 48.3-72.375 73.767-31.505 25.341-61.936 44.434-90.198 58.152-17.264 8.38-30.187 13.147-37.689 15.184l-4.512-16.616 6.054 16.119c-21.506 8.077-44.366-4.208-49.956-26.433l-187.496-745.377c-12.342-49.064 20.678-64.533 50.901-24.1l293.457 392.59c8.041 10.757 8.613 27.055 1.399 38.457l-30.861 48.773zM113.414 454.189l293.457-392.59c30.223-40.433 63.243-24.964 50.901 24.1l-187.496 745.377c-5.591 22.225-28.45 34.51-49.956 26.433l6.054-16.119-4.512 16.616c-7.502-2.037-20.425-6.804-37.689-15.184-28.262-13.718-58.694-32.811-90.198-58.152-31.661-25.466-55.416-50.373-72.375-73.767-10.518-14.508-16.507-25.609-19.105-32.337l16.062-6.203-15.45 7.6c-6.361-12.932-2.679-29.517 8.568-38.51l132.257-105.745c-1.893 1.513-2.269 3.788-1.053 5.71l-30.861-48.773c-7.215-11.402-6.643-27.699 1.399-38.457zM171.977 523.005c8.152 12.884 5.297 30.133-6.542 39.599l-132.257 105.745c1.385-1.108 1.591-2.034 0.828-3.586 0.87 2.065 1.745 3.969 3.378 6.997 2.941 5.45 6.924 11.798 12.096 18.931 15.154 20.904 36.789 43.587 66.078 67.146 29.445 23.685 57.678 41.398 83.652 54.006 8.976 4.357 16.992 7.759 23.917 10.313 3.987 1.471 6.617 2.307 7.759 2.617l1.542 0.498c2.103 0.79 3.836-0.141 4.453-2.596l187.496-745.377c1.562-6.208 2.269-10.907 2.228-13.581 0.025 1.61 1.237 4.821 6.985 7.514 5.68 2.661 8.835 1.589 10.044 0.634-2.123 1.678-5.337 5.21-9.18 10.351l-293.457 392.59c0.539-0.721 30.981 48.199 30.981 48.199zM561.821 535.214c0 25.165-20.314 45.576-45.387 45.576-25.060 0-45.387-20.412-45.387-45.576s20.327-45.576 45.387-45.576c25.073 0 45.387 20.412 45.387 45.576zM561.821 352.909c0 25.165-20.314 45.576-45.387 45.576-25.060 0-45.387-20.412-45.387-45.576s20.327-45.576 45.387-45.576c25.073 0 45.387 20.412 45.387 45.576zM561.821 717.52c0 25.165-20.314 45.576-45.387 45.576-25.060 0-45.387-20.412-45.387-45.576s20.327-45.576 45.387-45.576c25.073 0 45.387 20.412 45.387 45.576z" />
<glyph unicode="&#xe903;" glyph-name="pocket" data-tags="pocket" d="M598.932 691.655l-173.308-264.778-68.733 106.22c-14.169 21.897-41.773 22.056-56.222 0.299l-186.031-280.123-84.597 0.434c-16.506 0.085-29.956-13.228-30.040-29.734s13.228-29.956 29.734-30.040l964.225-4.943c16.506-0.085 29.956 13.228 30.040 29.734s-13.228 29.956-29.734 30.040l-57.155 0.293-282.061 442.268c-14.078 22.073-41.75 22.281-56.118 0.33zM892.862 250.719l-536.756-0.202c0 0 180.058 279.754 270.676 418.199 0.719 1.099 266.080-417.997 266.080-417.997zM328.56 510.862l75.452-116.604-91.44-141.819-154.199-0.226 170.187 258.649z" />
<glyph unicode="&#xe904;" glyph-name="tie" data-tags="tie" d="M995.203 724.418c-9.134-5.149-24.169 3.621-24.169 14.018v-577.723c0 10.515 15.046 19.313 24.284 14.048l-444.899 253.577-38.42 19.038-37.039-18.304-446.28-254.311c9.115 5.195 24.284-3.567 24.284-14.048v577.723c0-10.432-14.911-19.237-24.169-14.018l445.109-250.923 38.094-18.676 36.721 17.954 446.482 251.645zM500.368 508.089h23.264l-25.089 12.267-443.736 250.202c-26.169 14.753-54.807-2.158-54.807-32.121v-577.723c0-30.237 28.779-46.861 54.909-31.968l444.899 253.577 23.925 11.772h-23.466l25.306-12.506 443.518-252.843c26.142-14.9 54.909 1.922 54.909 31.968v577.723c0 30.154-28.651 46.866-54.807 32.121l-445.109-250.923-23.716-11.545z" />
<glyph unicode="&#xe905;" glyph-name="checked" data-tags="checked" d="M395.401 465.336c0.781 0.781 2.063 0.759 2.846-0.028l64.223-64.63 181.649 192.161c0.755 0.799 1.994 0.82 2.78 0.034l64.783-64.845c0.78-0.781 0.78-2.074 0.004-2.884l-247.489-258.53c-0.777-0.812-2.064-0.813-2.818-0.057l-130.826 131.108c-0.779 0.781-0.784 2.040 0.003 2.827l64.845 64.845zM914.286 448c0 222.176-180.109 402.286-402.286 402.286s-402.286-180.109-402.286-402.286c0-222.176 180.109-402.286 402.286-402.286s402.286 180.109 402.286 402.286zM0 448c0 282.77 229.23 512 512 512s512-229.23 512-512c0-282.77-229.23-512-512-512s-512 229.23-512 512z" />
<glyph unicode="&#xe906;" glyph-name="unchecked" data-tags="unchecked" d="M914.286 448c0 222.176-180.109 402.286-402.286 402.286s-402.286-180.109-402.286-402.286c0-222.176 180.109-402.286 402.286-402.286s402.286 180.109 402.286 402.286zM0 448c0 282.77 229.23 512 512 512s512-229.23 512-512c0-282.77-229.23-512-512-512s-512 229.23-512 512z" />
<glyph unicode="&#xe907;" glyph-name="minus" data-tags="minus" d="M512-64c-282.77 0-512 229.23-512 512s229.23 512 512 512c282.77 0 512-229.23 512-512s-229.23-512-512-512zM548.141 499.2h-193.235c-26.359 0-47.706-22.707-47.706-50.688v-1.024c0-27.981 21.347-50.688 47.706-50.688h290.093c26.335 0 47.706 22.707 47.706 50.688v1.024c0 27.981-21.371 50.688-47.706 50.688h-96.858z" />
<glyph unicode="&#xe908;" glyph-name="plus" data-tags="plus" d="M512-64c-282.77 0-512 229.23-512 512s229.23 512 512 512c282.77 0 512-229.23 512-512s-229.23-512-512-512zM645 499.2h-96.858v102.912c0 27.981-21.371 50.688-47.706 50.688h-0.964c-26.359 0-47.706-22.707-47.706-50.688v-102.912h-96.858c-26.359 0-47.706-22.707-47.706-50.688v-1.024c0-27.981 21.347-50.688 47.706-50.688h96.858v-102.912c0-27.981 21.347-50.688 47.706-50.688h0.964c26.335 0 47.706 22.707 47.706 50.688v102.912h96.858c26.335 0 47.706 22.707 47.706 50.688v1.024c0 27.981-21.371 50.688-47.706 50.688z" />
<glyph unicode="&#xe909;" glyph-name="jeans" data-tags="jeans" d="M41.89 602.638c-5.541-11.598-7.462-29.146-4.514-41.577l141.51-596.617c3.845-16.213 19.398-28.444 36.21-28.444h363.067c18.154 0 32.893 14.809 32.893 32.911v866.208h-458.098l-111.068-232.481zM163.284 802.363h431.394l-16.378 16.378v-849.83c0-0.046-363.204-0.155-363.204-0.155-1.668 0-4.004 1.837-4.338 3.247l-141.51 596.617c-1.215 5.122-0.131 15.022 2.198 19.897l106.617 223.163-14.778-9.318zM578.145 927.244c0.067 0 0.155-108.503 0.155-108.503l16.378 16.378h-435.315l16.378-16.378v108.555c0 0.030 402.404-0.052 402.404-0.052zM142.985 818.741v-16.378h468.071v124.933c0 18.004-14.806 32.704-32.911 32.704h-402.249c-18.3 0-32.911-14.556-32.911-32.704v-108.555zM490.062 661.872c0.055 0 0.025-158.552 0.025-158.552 0-4.076-3.405-11.144-6.693-13.77l-113.548-90.686c-1.143-0.913-4.37-0.933-5.435-0.103l-119.351 93.087c-3.135 2.445-6.445 9.316-6.402 13.425l1.62 156.342c0.002 0.169 249.784 0.257 249.784 0.257zM205.904 505.612c-0.148-14.319 7.823-30.867 19.011-39.593l119.351-93.087c13.024-10.158 33.040-10.031 46.021 0.337l113.548 90.686c11.066 8.838 19.008 25.323 19.008 39.365v158.625c0 18.102-14.692 32.682-32.781 32.682h-249.587c-18.117 0-32.764-14.6-32.951-32.674l-1.62-156.342zM766.673 443.195l-60.572-57.017c-6.586-6.2-16.951-5.886-23.151 0.7s-5.886 16.951 0.7 23.151l60.572 57.017c13.066 12.299 33.736 11.988 46.392-0.723l186.655-187.476c12.909-12.966 12.586-33.805-0.753-46.364l-242.961-228.752c-6.586-6.2-16.951-5.888-23.151 0.697s-5.888 16.951 0.697 23.151c0 0 242.855 228.258 242.956 228.157 0 0-187.218 187.615-187.383 187.459z" />
<glyph unicode="&#xe90a;" glyph-name="no-tie" data-tags="no-tie" d="M730.796 690.319c-39.101-176.086-109.348-365.374-218.154-561.958-108.806 196.585-179.053 385.874-218.154 561.961-14.486 65.235-23.681 124.421-28.622 176.727-1.793 18.98-2.91 35.928-3.482 50.74-0.379 9.821-0.472 17.299-0.408 22.329 0.219 8.943-6.179 15.672-14.275 15.877s-14.826-6.193-15.030-14.289c-0.092-6.74 0.007-14.72 0.406-25.048 0.593-15.35 1.746-32.84 3.59-52.366 5.053-53.496 14.435-113.883 29.189-180.326 41.14-185.27 116.147-384.679 233.303-591.558-1.782 3.864-1.896 8.564 0.726 13.187v7.527c-0.904 0.715-2.716 2.173-5.375 4.351-4.471 3.662 12.184 4.743 6.321 9.736-16.794 14.301-35.525 30.953-55.707 49.775-57.693 53.805-115.394 114.16-169.217 179.615-94.351 114.742-166.426 232.587-207.397 350.051l-2.464-14.075 50.535 62.212c5.106 6.286 4.15 15.522-2.136 20.628s-15.522 4.15-20.628-2.136l-50.535-62.212c-3.206-3.947-4.139-9.274-2.464-14.075 42.251-121.134 116.062-241.817 212.436-359.019 54.704-66.526 113.282-127.799 171.867-182.436 20.515-19.132 39.575-36.076 56.695-50.655 6.007-5.116 11.347-9.574 15.961-13.353 2.707-2.217 4.616-3.754 5.672-4.591 2.455-1.983 5.51-3.225 9.661-3.347 3.215 0.122 6.27 1.363 8.725 3.347 1.056 0.837 2.965 2.374 5.672 4.591 4.613 3.779 9.954 8.238 15.961 13.353 17.121 14.58 36.18 31.523 56.695 50.655 58.585 54.636 117.163 115.909 171.867 182.435 96.374 117.202 170.186 237.887 212.436 359.020 1.675 4.802 0.742 10.128-2.464 14.075l-50.535 62.212c-5.106 6.286-14.342 7.243-20.628 2.136s-7.243-14.342-2.136-20.628l50.535-62.212-2.464 14.075c-40.97-117.464-113.046-235.309-207.397-350.052-53.823-65.455-111.523-125.809-169.217-179.614-20.183-18.822-38.914-35.473-55.707-49.775-5.863-4.993 10.792-7.448 6.321-11.111-2.659-2.179-4.471-3.636-5.375-4.351v-6.152c2.621-4.623 2.508-9.323 0.726-13.187 117.156 206.878 192.164 406.285 233.304 591.555 14.754 66.444 24.136 126.831 29.189 180.327 1.844 19.526 2.998 37.017 3.59 52.367 0.399 10.329 0.498 18.309 0.427 23.837-0.226 9.31-6.955 15.707-15.051 15.503s-14.494-6.934-14.289-15.030c0.078-5.878-0.014-13.356-0.394-23.177-0.572-14.813-1.69-31.761-3.482-50.741-4.941-52.306-14.136-111.492-28.621-176.727zM956.766 266.665h-183.551c-8.099 0-14.664 6.565-14.664 14.664s6.565 14.664 14.664 14.664h183.551c8.099 0 14.664-6.565 14.664-14.664s-6.565-14.664-14.664-14.664zM532.702-11.119c0-10.735-8.953-19.552-20.079-19.552s-20.079 8.817-20.079 19.552c0 10.735 8.953 19.552 20.079 19.552s20.079-8.817 20.079-19.552v0zM463.216-11.119c0-27.034 22.183-48.881 49.407-48.881s49.407 21.847 49.407 48.881c0 27.034-22.183 48.881-49.407 48.881s-49.407-21.847-49.407-48.881v0z" />
<glyph unicode="&#xe90b;" glyph-name="tux" data-tags="tux" d="M770.998 917.44c-0.51-13.295-0.085-21.907-2.199-46.055s-5.955-47.096-5.955-47.096c-5.357-41.855-13.218-87.429-24.011-136.379-40.038-181.597-112.674-377.108-225.833-580.169-113.159 203.063-185.795 398.575-225.833 580.173-11.358 51.517-19.47 99.296-24.833 142.935l-4.665 44.568c0 0-2.186 29.508-2.666 42.026-0.38 9.911-0.473 17.458-0.409 22.535 0.219 9.025-6.237 15.813-14.406 16.018s-14.958-6.251-15.163-14.42c-0.092-6.798 0.007-14.848 0.407-25.267 0.594-15.486 1.749-33.132 3.597-52.831 5.062-53.973 14.46-114.898 29.241-181.935 41.299-187.314 116.666-388.953 234.452-598.149l15.415 15.657c0.891 1.585 1.78 3.169 2.666 4.753 0.070 0.816-0.11 1.786-1.354 2.812-4.479 3.695-9.685 8.073-15.559 13.11-16.824 14.429-35.588 31.23-55.807 50.22-57.798 54.287-115.602 115.183-169.523 181.225-94.525 115.774-166.733 234.68-207.781 353.206l-2.464-14.131 50.628 62.771c5.13 6.361 4.133 15.676-2.228 20.806s-15.676 4.133-20.806-2.228l-50.628-62.771c-3.202-3.971-4.134-9.311-2.464-14.131 42.326-122.216 116.271-243.982 212.821-362.237 54.805-67.125 113.492-128.951 172.186-184.079 20.553-19.305 39.649-36.401 56.801-51.113 6.018-5.162 11.369-9.661 15.991-13.474 2.797-2.307 4.744-3.885 5.78-4.71 5.469-4.356 11.8-4.099 16.605-1.264 4.805-2.835 11.136-3.092 16.605 1.264 1.036 0.825 2.983 2.403 5.78 4.71 4.622 3.813 9.973 8.312 15.991 13.474 17.153 14.711 36.248 31.808 56.801 51.113 58.694 55.129 117.381 116.954 172.186 184.079 96.55 118.255 170.496 240.022 212.822 362.238 1.669 4.82 0.738 10.16-2.464 14.131l-50.628 62.771c-5.13 6.361-14.445 7.358-20.806 2.228s-7.358-14.445-2.228-20.806l50.628-62.771-2.464 14.131c-41.048-118.526-113.256-237.433-207.781-353.207-53.921-66.042-111.725-126.938-169.523-181.224-20.219-18.991-38.983-35.791-55.807-50.22-5.873-5.037-11.080-9.415-15.559-13.11-2.664-2.198 0.905-3.907 0-4.628l16.727-18.594c117.785 209.195 193.153 410.833 234.452 598.146 14.78 67.037 24.179 127.963 29.241 181.936 1.848 19.7 3.003 37.346 3.597 52.832 0.399 10.42 0.499 18.47 0.428 24.046-0.226 9.392-7.015 15.848-15.184 15.643s-14.625-6.994-14.42-15.163c0.078-5.933-0.014-13.481-0.395-23.392zM970.489 269.923h-183.887c-8.172 0-14.796 6.624-14.796 14.796s6.624 14.796 14.796 14.796h183.887c8.172 0 14.796-6.624 14.796-14.796s-6.624-14.796-14.796-14.796zM530.701-10.68c0-10.856-8.945-19.728-20.011-19.728s-20.011 8.872-20.011 19.728c0 10.855 8.945 19.728 20.011 19.728s20.011-8.873 20.011-19.728v0zM461.088-10.68c0-27.253 22.248-49.32 49.603-49.32s49.603 22.067 49.603 49.32c0 27.253-22.248 49.32-49.603 49.32s-49.603-22.067-49.603-49.32v0zM392.046 819.985c-17.155 8.388-34.531-2.601-34.531-21.603v-158.815c0-19.118 17.504-29.948 34.58-21.509l127.334 62.926h-13.11l127.334-62.926c17.076-8.439 34.58 2.392 34.58 21.509v158.815c0 19.002-17.376 29.991-34.531 21.603l-127.327-62.254h12.998l-127.327 62.254zM512.874 727.969l133.826 65.431c-2.589-1.266-8.059 2.194-8.059 4.982v-158.815c0 2.85 5.557 6.288 8.123 5.020l-133.89 66.166-133.89-66.166c2.565 1.268 8.123-2.171 8.123-5.020v158.815c0-2.788-5.471-6.248-8.059-4.982l133.826-65.431z" />
<glyph unicode="&#xe90c;" glyph-name="fall" data-tags="fall" horiz-adv-x="1053" d="M490.42 150.045l-237.479-81.022c-32.014-10.922-62.597 12.885-60.007 46.55l11.469 149.093-178.717 93.969c-27.368 14.38-34.017 48.913-14.357 72.641l85.841 103.601c-1.41-1.701-1.085-0.549-0.727-2.954l-20.982 140.882c-5.24 35.18 26.801 60.562 59.826 47.86l165.641-63.708-17.44 153.876c-3.848 34.629 27.765 59.084 60.385 46.711l65.132-24.705 79.908 107.761c19.105 25.884 55.907 25.855 74.991 0l79.561-107.792 65.479 24.736c32.55 12.347 64.208-12.307 60.385-46.711l-17.147-154.319 165.348 64.151c33.084 12.725 65.043-12.83 59.826-47.86l-20.982-140.882c0.345 2.314 0.624 1.325-0.727 2.954l85.841-103.601c19.598-23.653 13.004-58.265-14.357-72.641l-178.966-94.033 11.718-149.028c2.587-33.628-27.823-57.53-60.007-46.55l-237.479 81.022v-176.712c0-19.875-16.112-35.988-35.988-35.988s-35.988 16.112-35.988 35.988v176.712zM562.396 226.094l223.075-76.108-9.536 118.455c-1.709 22.217 10.943 45.264 30.683 55.636l160.848 84.513-67.242 80.364c-11.653 14.064-17.719 35.59-15.041 53.57l13.893 93.284-162.795-61.971c-32.463-12.486-64.39 11.819-60.527 46.585l17.11 153.989-35.898-13.564c-22.605-8.574-49.389-0.62-63.689 18.754l-66.666 90.322-67.072-90.322c-14.281-19.348-41.181-27.291-63.689-18.754l-35.346 13.407 16.559-153.832c3.832-34.488-27.972-59.106-60.527-46.585l-162.905 62.656 14.003-93.968c2.664-17.885-3.445-39.575-15.041-53.57l-67.042-80.913 160.648-83.964c19.726-10.365 32.393-33.416 30.683-55.636l-9.177-119.3 222.716 76.908v280.095c0 19.875 16.112 35.988 35.988 35.988s35.988-16.112 35.988-35.988v-280.050z" />
<glyph unicode="&#xe90d;" glyph-name="winter" data-tags="winter" horiz-adv-x="1028" d="M347.329 308.897c2.6-2.121 5.336-4.023 8.184-5.667l118.548-68.444v-127.387l-111.477-111.477c-12.846-12.846-12.846-33.674 0-46.52s33.674-12.846 46.52 0l97.851 97.851 97.851-97.851c12.846-12.846 33.674-12.846 46.52 0s12.846 33.674 0 46.52l-111.477 111.477v123.692c2.124 0.924 4.182 1.956 6.16 3.098l119.582 69.040c1.742 1.006 3.442 2.108 5.094 3.297l116.633-67.338 40.803-152.28c4.702-17.548 22.739-27.962 40.288-23.26s27.962 22.739 23.26 40.288l-35.816 133.667 133.667 35.816c17.548 4.702 27.962 22.739 23.26 40.288s-22.739 27.962-40.288 23.26l-152.28-40.803-119.165 68.8v137.762c0 1.008-0.026 2.019-0.078 3.031l133.348 76.988 152.28-40.803c17.548-4.702 35.586 5.712 40.288 23.26s-5.712 35.586-23.26 40.288l-133.667 35.816 35.816 133.667c4.702 17.548-5.712 35.586-23.26 40.288s-35.586-5.712-40.288-23.26l-40.803-152.28-133.437-77.040c-0.789 0.507-1.588 0.994-2.395 1.46l-119.582 69.040c-1.978 1.142-4.037 2.175-6.16 3.098v156.089l111.477 111.477c12.846 12.846 12.846 33.674 0 46.52s-33.674 12.846-46.52 0l-97.851-97.851-97.851 97.851c-12.846 12.846-33.674 12.846-46.52 0s-12.846-33.674 0-46.52l111.477-111.477v-159.784l-118.483-68.406-128.987 74.471-40.803 152.28c-4.702 17.548-22.739 27.962-40.288 23.26s-27.962-22.739-23.26-40.288l35.816-133.667-133.667-35.816c-17.548-4.702-27.962-22.739-23.26-40.288s22.739-27.962 40.288-23.26l152.28 40.803 126.644-73.118c-0.189-1.949-0.286-3.895-0.286-5.83v-133.609l-126.358-72.953-152.28 40.803c-17.548 4.702-35.586-5.712-40.288-23.26s5.712-35.586 23.26-40.288l133.667-35.816-35.816-133.667c-4.702-17.548 5.712-35.586 23.26-40.288s35.586 5.712 40.288 23.26l40.803 152.28 120.738 69.708zM513.115 576.206l119.582-69.040c0.339-0.196 2.563-4.045 2.563-4.44v-138.081c0-0.391-2.221-4.242-2.563-4.44l-119.582-69.040c-0.339-0.196-4.784-0.198-5.126 0l-119.582 69.040c-0.339 0.196-2.563 4.045-2.563 4.44v138.081c0 0.391 2.221 4.242 2.563 4.44l119.582 69.040c0.339 0.196 4.784 0.198 5.126 0z" />
<glyph unicode="&#xe90e;" glyph-name="spring" data-tags="spring" d="M479.595 452.956c64.81-0.691 64.81-0.691 64.81-0.395s-32.405 0.395-32.405 0.395l-32.405-0.189c0.161-27.511 21.119-37.054 44.039-38.084 0.708-0.051 2.895-0.165 5.779-0.276 4.73-0.183 9.783-0.292 14.992-0.292 264.873 0 479.595 214.475 479.595 479.044-64.81 0.691-64.81 0.691-64.81 0.395s32.405-0.395 32.405-0.395l32.405 0.189c-0.161 27.511-21.119 37.054-44.039 38.084-0.708 0.051-2.895 0.165-5.779 0.276-4.73 0.183-9.783 0.292-14.992 0.292-264.873 0-479.595-214.475-479.595-479.044zM971.677 867.021c2.318-0.090 3.972-0.176 4.768-0.227 0.186-0.014-0.56 0.149-2.124 0.861-2.147 0.977-4.423 2.461-6.816 4.881-4.839 4.894-8.266 11.845-8.316 20.434l64.81 0.189c-64.81 0.691-64.81 0.691-64.81 0 0-228.816-185.705-414.308-414.785-414.308-4.317 0-8.548 0.092-12.487 0.244-2.318 0.090-3.972 0.176-4.768 0.227-0.186 0.014 0.56-0.149 2.124-0.861 2.147-0.977 4.423-2.461 6.816-4.881 4.839-4.894 8.266-11.845 8.316-20.434l-64.81-0.189c64.81-0.691 64.81-0.691 64.81 0 0 228.816 185.705 414.308 414.785 414.308 4.317 0 8.548-0.092 12.487-0.244zM544.405 440.009c-64.81 0.691-64.81 0.691-64.81 0.395s64.81-0.584 64.81-0.584c-0.050-8.589-3.476-15.54-8.316-20.434-2.393-2.42-4.669-3.903-6.816-4.881-1.564-0.712-2.31-0.875-2.726-0.894 1.399 0.083 3.053 0.17 5.37 0.259 3.939 0.152 8.17 0.244 12.487 0.244 229.079 0 414.785-185.492 414.785-414.308 64.81-0.691 64.81-0.691 64.81-0.395s-64.81 0.584-64.81 0.584c0.050 8.589 3.476 15.54 8.316 20.434 2.393 2.42 4.669 3.903 6.816 4.881 1.564 0.712 2.31 0.875 2.726 0.894-1.399-0.083-3.053-0.17-5.37-0.259-3.939-0.152-8.17-0.244-12.487-0.244-229.079 0-414.785 185.492-414.785 414.308zM974.182-38.742c2.884 0.111 5.070 0.226 6.381 0.309 22.318 0.997 43.276 10.54 43.437 38.051l-32.405 0.189h-32.405c64.81-0.691 64.81-0.691 64.81 0 0 264.569-214.722 479.044-479.595 479.044-5.208 0-10.262-0.109-14.992-0.292-2.884-0.111-5.070-0.226-6.381-0.309-22.318-0.997-43.276-10.54-43.437-38.051l32.405-0.189h32.405c-64.81 0.691-64.81 0.691-64.81 0 0-264.569 214.722-479.044 479.595-479.044 5.208 0 10.262 0.109 14.992 0.292zM479.595 452.956c64.81-0.691 64.81-0.691 64.81-0.395s-64.81 0.584-64.81 0.584c0.050 8.589 3.476 15.54 8.316 20.434 2.393 2.42 4.669 3.903 6.816 4.881 1.564 0.712 2.31 0.875 2.726 0.894-1.399-0.083-3.053-0.17-5.37-0.259-3.939-0.152-8.17-0.244-12.487-0.244-229.079 0-414.785 185.492-414.785 414.308-64.81 0.691-64.81 0.691-64.81 0.395s64.81-0.584 64.81-0.584c-0.050-8.589-3.476-15.54-8.316-20.434-2.393-2.42-4.669-3.903-6.816-4.881-1.564-0.712-2.31-0.875-2.726-0.894 1.399 0.083 3.053 0.17 5.37 0.259 3.939 0.152 8.17 0.244 12.487 0.244 229.079 0 414.785-185.492 414.785-414.308zM49.818 931.708c-2.884-0.111-5.070-0.226-6.381-0.309-22.318-0.997-43.276-10.54-43.437-38.051l32.405-0.189h32.405c-64.81 0.691-64.81 0.691-64.81 0 0-264.569 214.722-479.044 479.595-479.044 5.208 0 10.262 0.109 14.992 0.292 2.884 0.111 5.070 0.226 6.381 0.309 22.318 0.997 43.276 10.54 43.437 38.051l-32.405 0.189h-32.405c64.81-0.691 64.81-0.691 64.81 0 0 264.569-214.722 479.044-479.595 479.044-5.208 0-10.262-0.109-14.992-0.292zM544.405 440.009c-64.81 0.691-64.81 0.691-64.81 0.395s32.405-0.395 32.405-0.395l32.405 0.189c-0.161 27.511-21.119 37.054-44.039 38.084-0.708 0.051-2.895 0.165-5.779 0.276-4.73 0.183-9.783 0.292-14.992 0.292-264.873 0-479.595-214.475-479.595-479.044 64.81-0.691 64.81-0.691 64.81-0.395s-32.405 0.395-32.405 0.395l-32.405-0.189c0.161-27.511 21.119-37.054 44.039-38.084 0.708-0.051 2.895-0.165 5.779-0.276 4.73-0.183 9.783-0.292 14.992-0.292 264.873 0 479.595 214.475 479.595 479.044zM52.323 25.945c-2.318 0.090-3.972 0.176-4.768 0.227-0.186 0.014 0.56-0.149 2.124-0.861 2.147-0.977 4.423-2.461 6.816-4.881 4.839-4.894 8.266-11.845 8.316-20.434l-64.81-0.189c64.81-0.691 64.81-0.691 64.81 0 0 228.816 185.705 414.308 414.785 414.308 4.317 0 8.548-0.092 12.487-0.244 2.318-0.090 3.972-0.176 4.768-0.227 0.186-0.014-0.56 0.149-2.124 0.861-2.147 0.977-4.423 2.461-6.816 4.881-4.839 4.894-8.266 11.845-8.316 20.434l64.81 0.189c-64.81 0.691-64.81 0.691-64.81 0 0-228.816-185.705-414.308-414.785-414.308-4.317 0-8.548 0.092-12.487 0.244z" />
<glyph unicode="&#xe90f;" glyph-name="summer" data-tags="summer" d="M512 723.692c-152.418 0-275.692-123.278-275.692-275.692 0-152.418 123.274-275.692 275.692-275.692 152.415 0 275.692 123.274 275.692 275.692 0 152.415-123.278 275.692-275.692 275.692v0zM512 644.923c108.702 0 196.923-88.222 196.923-196.923 0-108.705-88.222-196.923-196.923-196.923-108.705 0-196.923 88.218-196.923 196.923 0 108.702 88.218 196.923 196.923 196.923zM472.615 802.462c0-21.752 17.633-39.385 39.385-39.385s39.385 17.633 39.385 39.385v118.154c0 21.752-17.633 39.385-39.385 39.385s-39.385-17.633-39.385-39.385v-118.154zM472.615-24.615c0-21.752 17.633-39.385 39.385-39.385s39.385 17.633 39.385 39.385v118.154c0 21.752-17.633 39.385-39.385 39.385s-39.385-17.633-39.385-39.385v-118.154zM866.462 487.385c-21.752 0-39.385-17.633-39.385-39.385s17.633-39.385 39.385-39.385h118.154c21.752 0 39.385 17.633 39.385 39.385s-17.633 39.385-39.385 39.385h-118.154zM39.385 487.385c-21.752 0-39.385-17.633-39.385-39.385s17.633-39.385 39.385-39.385h118.154c21.752 0 39.385 17.633 39.385 39.385s-17.633 39.385-39.385 39.385h-118.154zM884.785 743.249c15.913 14.829 16.792 39.751 1.963 55.664s-39.751 16.792-55.664 1.963l-86.49-80.599c-15.913-14.829-16.792-39.751-1.963-55.664s39.751-16.792 55.664-1.963l86.49 80.599zM884.785 152.413c15.913-14.829 16.792-39.751 1.963-55.664s-39.751-16.792-55.664-1.963l-86.49 80.599c-15.913 14.829-16.792 39.751-1.963 55.664s39.751 16.792 55.664 1.963l86.49-80.599zM143.55 743.249c-15.913 14.829-16.792 39.751-1.963 55.664s39.751 16.792 55.664 1.963l86.49-80.599c15.913-14.829 16.792-39.751 1.963-55.664s-39.751-16.792-55.664-1.963l-86.49 80.599zM143.55 152.413c-15.913-14.829-16.792-39.751-1.963-55.664s39.751-16.792 55.664-1.963l86.49 80.599c15.913 14.829 16.792 39.751 1.963 55.664s-39.751 16.792-55.664 1.963l-86.49-80.599z" />
<glyph unicode="&#xe910;" glyph-name="cheers" data-tags="cheers" horiz-adv-x="976" d="M127.294 0.836l44.767 167.071c65.313-12.82 116.116 2.212 152.5 37.301 13.995 13.497 24.763 28.958 32.776 45.143 4.86 9.814 7.784 17.886 9.173 23.072l118.483 442.185c6.311 23.554-7.767 47.974-31.407 54.309l-241.712 64.766c-23.703 6.351-48.012-7.661-54.354-31.329l-118.483-442.185c-1.391-5.191-2.895-13.651-3.594-24.59-1.151-18.039 0.447-36.83 5.828-55.534 12.516-43.505 43.079-78.872 94.545-101.293l-45.3-169.064-64.148 17.188c-10.156 2.721-20.595-3.306-23.316-13.461s3.306-20.595 13.461-23.316l164.418-44.056c10.156-2.721 20.595 3.306 23.316 13.461s-3.306 20.595-13.461 23.316l-63.493 17.013zM448.216 725.464l-118.483-442.185c-0.776-2.895-2.857-8.64-6.517-16.032-6.186-12.492-14.481-24.404-25.086-34.631-28.382-27.371-68.329-38.568-124.34-26.176l-1.396 0.309-1.426 0.097c1.507-0.102 2.176-0.266 2.838-0.471l-1.407 0.377c-0.693 0.158-0.693 0.158-1.39 0.32l1.42-0.39c-54.672 17.311-83.665 46.997-94.568 84.892-4.078 14.176-5.31 28.655-4.421 42.581 0.526 8.24 1.597 14.262 2.374 17.161l118.483 442.185c0.896 3.345 4.319 5.318 7.722 4.406l241.712-64.766c3.318-0.889 5.356-4.424 4.484-7.677v0zM356.474 509.307c4.115-1.709 6.507-6.534 5.319-10.863l-52.267-190.414c0 0-28.365-98.898-124.734-76.165s-69.897 114.36-69.897 114.36l57.028 231.096c1.065 4.315 5.227 6.443 9.379 4.719l175.173-72.734zM818.691 535.608c4.445-0.235 8.966-3.872 10.115-8.191l47.114-177.056c0 0 30.142-82.098-61.078-117s-125.46 58.266-125.46 58.266l-69.051 246.84c-1.199 4.285 1.45 7.567 5.878 7.332l192.483-10.191zM886.066 2.32l-46.39 173.129c55.025 22.217 87.43 58.579 100.404 103.71 5.372 18.686 6.966 37.46 5.814 55.483-0.699 10.929-2.202 19.382-3.592 24.568l-118.483 442.185c-6.311 23.554-30.713 37.664-54.354 31.329l-241.712-64.766c-23.703-6.351-37.749-30.641-31.407-54.309l118.483-442.185c1.391-5.191 4.318-13.27 9.183-23.092 8.022-16.198 18.802-31.672 32.814-45.18 35.232-33.963 83.973-49.147 146.31-38.485l46.152-172.241-63.82-17.101c-10.156-2.721-16.183-13.16-13.461-23.316s13.16-16.183 23.316-13.461l164.418 44.056c10.156 2.721 16.183 13.16 13.461 23.316s-13.16 16.183-23.316 13.461l-63.82-17.101zM787.042 791.54l118.483-442.185c0.776-2.895 1.846-8.911 2.372-17.142 0.889-13.911-0.339-28.375-4.409-42.535-10.894-37.895-39.891-67.565-94.594-84.839l-1.363-0.43-1.283-0.629c1.356 0.665 2.018 0.858 2.693 1.011l-1.407-0.377c-0.68-0.21-0.68-0.21-1.364-0.418l1.425 0.372c-56.002-12.344-95.954-1.132-124.344 26.235-10.62 10.237-18.926 22.161-25.119 34.666-3.665 7.399-5.748 13.15-6.525 16.048l-118.483 442.185c-0.896 3.345 1.081 6.765 4.484 7.677l241.712 64.766 7.722-4.406zM359.295 846.703c3.538-0.134 7.923 0.097 12.91 0.951 7.501 1.284 14.957 3.769 22.037 7.791 25.379 14.417 28.932 47.872 28.932 47.872s16.854-14.766 58.656-14.766c41.802 0 64.076 19.522 64.076 19.522s46.338-64.752 90.82-61.307c10.483 0.812 18.323 9.967 17.511 20.45s-9.967 18.323-20.45 17.511c-32.78-2.538-53.943 18.356-54.821 56.625-0.438 19.090-25.574 25.721-35.372 9.332-21.709-36.311-96.885-39.889-117.469-0.884-9.756 18.485-37.856 10.022-35.78-10.776 2.944-29.494-3.475-43.977-14.909-50.473-5.222-2.966-10.923-3.942-14.701-3.799-10.215 0.736-19.327-7.154-20.080-17.641s7.138-19.599 17.625-20.352c0.375-0.025 0.375-0.025 1.016-0.054z" />
<glyph unicode="&#xe911;" glyph-name="chest" data-tags="chest" d="M499.905 882.324l18.106-0.001-125.634 71.596c-20.796 11.851-49.223 6.248-59.913-15.651l16.432-8.022 12.216 13.607c-1.612 1.371-1.612 1.371-4.397 2.958-15.216 7.46-26.59-3.075-31.136-19.079-4.167-14.67-6.424-42.556-6.424-88.428s2.257-73.759 6.424-88.43c4.546-16.004 15.917-26.54 31.134-19.083 2.785 1.586 2.785 1.586 4.397 2.957l-12.213 13.609-15.165-10.218c12.742-18.911 38.782-24.78 58.647-13.457l125.633 71.602-18.106-0.001 125.641-71.602c20.797-11.854 49.225-6.247 59.915 15.654l-16.433 8.021-12.213-13.609c1.613-1.371 1.613-1.371 4.397-2.957 15.216-7.457 26.588 3.079 31.134 19.083 4.167 14.671 6.424 42.558 6.424 88.43s-2.257 73.759-6.424 88.428c-4.546 16.004-15.92 26.539-31.136 19.079-2.785-1.587-2.785-1.587-4.397-2.958l12.216-13.607 15.164 10.219c-12.742 18.907-38.781 24.773-58.644 13.453l-125.642-71.595zM643.655 922.145c3.353 1.911 8.236 0.811 10.21-2.118l11.743-17.425 15.636 14.037c-1.531-1.298-1.531-1.298-3.935-2.665-6.075-2.978-13.502-2.033-18.344 2.452-1.236 1.145-1.939 2.144-2.324 2.914 0.053-0.107 0.253-0.644 0.525-1.602 2.993-10.536 5.032-35.733 5.032-78.435s-2.039-67.9-5.032-78.437c-0.272-0.959-0.472-1.496-0.526-1.603 0.384 0.769 1.088 1.768 2.323 2.912 4.841 4.485 12.267 5.432 18.343 2.455 2.404-1.367 2.404-1.367 3.935-2.664l-18.024 16.174-10.622-21.763c-0.577-1.183-5.147-2.084-8.939 0.077l-134.7 76.763-134.688-76.763c-3.352-1.911-8.233-0.811-10.208 2.12l-11.74 17.425-15.637-14.033c1.531 1.297 1.531 1.297 3.935 2.664 6.076 2.977 13.502 2.030 18.343-2.455 1.235-1.144 1.938-2.143 2.323-2.912-0.054 0.107-0.253 0.645-0.526 1.603-2.993 10.537-5.032 35.735-5.032 78.437s2.039 67.899 5.032 78.435c0.272 0.958 0.472 1.495 0.525 1.602-0.385-0.77-1.088-1.769-2.324-2.914-4.842-4.485-12.269-5.431-18.344-2.452-2.404 1.367-2.404 1.367-3.935 2.665l18.023-16.18 10.625 21.765c0.576 1.181 5.148 2.082 8.941-0.080l134.687-76.755 134.698 76.755zM580.296-7.651c-4.091-5.457-7.514-9.207-9.777-10.991 1.267 0.999 4.593 2.126 10.6-0.677 6.111-2.851 7.409-6.277 7.435-7.997-0.044 2.829 0.708 7.81 2.368 14.392l170.95 677.629c0.654 2.593 2.413 3.538 4.541 2.727l1.865-0.599c0.867-0.228 3.049-0.91 6.445-2.154 5.989-2.194 12.991-5.165 20.909-9.022 23.027-11.217 48.512-27.277 75.666-49.055 26.983-21.641 46.741-42.192 60.416-60.902 4.635-6.341 8.17-11.938 10.746-16.701 1.398-2.584 2.113-4.147 2.285-4.597l0.731-1.662c-0.866 1.731-0.633 2.775 0.85 3.957l-119.941-95.62c-12.58-10.029-15.722-28.369-7.072-41.999l27.011-42.564c-0.468 0.737-266.028-354.165-266.028-354.165zM850.192 408.673c1.388-2.188 0.973-4.613-1.009-6.192l119.941 95.62c11.995 9.563 15.935 27.255 9.060 41l-16.354-8.18 17.084 6.518c-2.398 6.285-7.925 16.503-17.674 29.842-15.595 21.336-37.593 44.217-67.061 67.851-29.297 23.497-57.087 41.008-82.531 53.403-15.641 7.619-27.274 11.881-34.071 13.668l-4.649-17.685 6.514 17.086c-22.799 8.692-47.076-4.35-53.030-27.953l-170.95-677.629c-13.145-52.107 21.953-68.484 54.095-25.61l266.006 354.833c8.629 11.511 9.329 28.745 1.639 40.863l-27.011 42.564zM141.993 325.246l266.006-354.833c32.142-42.875 67.24-26.497 54.095 25.61l-170.95 677.629c-5.955 23.603-30.231 36.645-53.030 27.953l6.514-17.086-4.649 17.685c-6.797-1.787-18.431-6.049-34.071-13.668-25.444-12.395-53.234-29.907-82.531-53.403-29.468-23.634-51.465-46.514-67.061-67.851-9.749-13.338-15.276-23.557-17.674-29.842l17.084-6.518-16.354 8.18c-6.875-13.745-2.935-31.437 9.060-41l119.941-95.62c-1.981 1.58-2.397 4.005-1.009 6.192l-27.011-42.564c-7.69-12.118-6.99-29.352 1.639-40.863zM198.243 389.077c8.65 13.63 5.508 31.97-7.072 41.999l-119.941 95.62c1.483-1.183 1.716-2.227 0.85-3.957l0.731 1.662c0.172 0.45 0.887 2.013 2.285 4.597 2.576 4.763 6.111 10.36 10.746 16.701 13.676 18.71 33.434 39.261 60.416 60.902 27.154 21.778 52.639 37.837 75.666 49.055 7.917 3.857 14.92 6.828 20.909 9.022 3.396 1.244 5.578 1.926 6.445 2.154l1.865 0.599c2.128 0.812 3.887-0.133 4.541-2.727l170.95-677.629c1.66-6.582 2.412-11.563 2.368-14.392 0.027 1.72 1.324 5.145 7.435 7.997 6.008 2.803 9.334 1.676 10.6 0.677-2.262 1.784-5.686 5.534-9.777 10.991l-266.006 354.833c0.474-0.632 26.989 41.895 26.989 41.895zM558.129 402.887c0 23.239-18.815 42.089-42.036 42.089-23.21 0-42.036-18.85-42.036-42.089s18.826-42.089 42.036-42.089c23.221 0 42.036 18.85 42.036 42.089zM558.129 234.53c0 23.239-18.815 42.089-42.036 42.089-23.21 0-42.036-18.85-42.036-42.089s18.826-42.089 42.036-42.089c23.221 0 42.036 18.85 42.036 42.089zM558.129 571.244c0 23.239-18.815 42.089-42.036 42.089-23.21 0-42.036-18.85-42.036-42.089s18.826-42.089 42.036-42.089c23.221 0 42.036 18.85 42.036 42.089z" />
<glyph unicode="&#xe912;" glyph-name="dress" data-tags="dress" d="M512.683 27.993l27.201-29.781c14.699-16.093 35.234-25.371 57.367-25.371 24.407 0 46.871 11.325 61.583 30.389l29.166 37.794 29.166-37.794c14.715-19.068 37.169-30.389 61.583-30.389 42.959 0 77.755 34.726 77.755 77.525-0.070 0.316-0.149 4.263-0.149 4.263 1.685 59.727-8.46 120.642-38.373 187.493-41.61 92.991-116.938 183.931-234.237 270.419l-6.26 4.616-3.86 6.752c-10.738 18.784-16.013 50.5-10.228 80.301 8.163 42.047 36.274 77.616 84.976 100.349 28.616 13.357 25.775 85.354-10.081 113.131l-17.893 13.861 4.278 22.226c0.003 0.014 36.179-6.947 36.179-6.947l-21.953-29.585c-7.029 5.215-14.857 8.342-22.675 9.229-20.084 1.643-46.591-10.107-78.327-39.908l-25.218-23.68-25.218 23.68c-31.736 29.801-58.243 41.552-77.253 40.012-8.892-0.991-16.721-4.118-23.75-9.333l-21.953 29.585 36.177 6.96c0.001-0.006 4.28-22.238 4.28-22.238l-17.893-13.861c-35.857-27.777-38.698-99.774-10.081-113.131 48.703-22.733 76.814-58.302 84.976-100.349 5.785-29.801 0.511-61.517-10.228-80.301l-3.86-6.752-6.26-4.616c-117.299-86.489-192.627-177.429-234.237-270.419-29.913-66.851-40.058-127.766-38.373-187.493-0.032-3.143-0.079-3.947-0.147-4.891-0.003-42.172 34.793-76.897 77.752-76.897 24.414 0 46.868 11.322 61.583 30.389l29.166 37.794 29.166-37.794c14.712-19.064 37.176-30.389 61.583-30.389 22.133 0 42.668 9.279 57.367 25.371l27.201 29.781zM403.838 862.906c0.761 0.105 1.526 0.2 2.296 0.286 29.303 2.398 65.281-11.017 106.55-49.77 41.269 38.753 77.248 52.168 106.55 49.77 0.586-0.065 1.169-0.136 1.75-0.212 3.276 22.644 1.55 47.078-6.674 73.031-3.073 9.698 2.298 20.051 11.995 23.124s20.051-2.298 23.124-11.995c10.875-34.321 12.385-66.952 6.751-97.066 1.594-1.031 3.153-2.113 4.677-3.244 53.6-41.541 61.643-148.327 3.099-175.653-85.562-39.938-66.704-114.366-58.348-128.984 270.019-199.094 290.126-398.102 287.572-488.603 0.033-1.078 0.164-2.135 0.164-3.224 0-63.163-51.306-114.366-114.595-114.366-23.64 0-45.564 7.173-63.78 19.435 0.742 0.917 1.475 1.844 2.197 2.78l-29.166 22.507-29.166-22.507c0.722-0.936 1.454-1.862 2.196-2.779-18.219-12.263-40.146-19.436-63.779-19.436-25.998 0-49.921 8.675-69.118 23.254l-15.45 14.112-15.45-14.112c-19.198-14.58-43.121-23.254-69.118-23.254-23.633 0-45.56 7.173-63.779 19.436 0.742 0.917 1.474 1.843 2.196 2.779l-29.166 22.507-29.166-22.507c0.723-0.936 1.455-1.863 2.197-2.78-18.216-12.262-40.14-19.435-63.78-19.435-63.289 0-114.595 51.203-114.595 114.366 0 1.089 0.131 2.146 0.164 3.224-2.554 90.501 17.553 289.509 287.572 488.603 8.356 14.618 27.215 89.046-58.348 128.984-58.544 27.327-50.501 134.112 3.102 175.637 1.366 1.015 2.759 1.991 4.18 2.926-5.708 30.203-4.228 62.948 6.689 97.399 3.073 9.698 13.426 15.069 23.124 11.995s15.069-13.426 11.995-23.124c-8.233-25.983-9.954-50.442-6.664-73.105z" />
<glyph unicode="&#xe913;" glyph-name="message" data-tags="message" d="M864 237.524h-277.333v-183.113c0 3.533 3.555 11.2 14.436 16.35 10.542 4.99 18.239 3.116 20.833 1.094l-212.609 165.669h-249.327c-40.632 0-74.667 35.373-74.667 79.238v426.667c0 43.865 34.035 79.238 74.667 79.238h704c40.597 0 74.667-35.397 74.667-79.238v-426.667c0-43.841-34.070-79.238-74.667-79.238zM1024 743.429c0 90.255-71.53 164.571-160 164.571h-704c-88.512 0-160-74.299-160-164.571v-426.667c0-90.272 71.488-164.571 160-164.571h234.667l-26.225 9.011 201.045-156.658c46.12-35.938 102.514-9.245 102.514 49.867v140.446l-42.667-42.667h234.667c88.47 0 160 74.317 160 164.571v426.667z" />
<glyph unicode="&#xe914;" glyph-name="carret-down" data-tags="carret-down" d="M442.447 194.103c19.209-18.398 44.368-27.613 69.544-27.613 25.194 0 50.37 9.215 69.562 27.613 0 0 378.546 337.254 414.527 371.771 35.999 34.483 38.435 96.58 0 133.409-38.365 36.812-91.966 39.752-139.088-0.033l-345.001-309.393-344.965 309.393c-47.122 39.785-100.723 36.845-139.105 0.033-38.435-36.829-35.999-98.925 0-133.409 35.981-34.516 414.527-371.771 414.527-371.771z" />
<glyph unicode="&#xe915;" glyph-name="carret-left" data-tags="carret-left" d="M259.613 517.553c-18.398-19.209-27.613-44.368-27.613-69.544 0-25.194 9.215-50.37 27.613-69.562 0 0 337.254-378.546 371.771-414.527 34.483-35.999 96.58-38.435 133.409 0 36.812 38.365 39.752 91.966-0.033 139.088l-309.393 345.001 309.393 344.965c39.785 47.122 36.845 100.723 0.033 139.105-36.829 38.435-98.925 35.999-133.409 0-34.516-35.981-371.771-414.527-371.771-414.527z" />
<glyph unicode="&#xe916;" glyph-name="carret-rigth" data-tags="carret-rigth" horiz-adv-x="1028" d="M766.652 378.447c18.398 19.209 27.613 44.368 27.613 69.544 0 25.194-9.215 50.37-27.613 69.562 0 0-337.254 378.546-371.771 414.527-34.483 35.999-96.58 38.435-133.409 0-36.812-38.365-39.752-91.966 0.033-139.088l309.393-345.001-309.393-344.965c-39.785-47.122-36.845-100.723-0.033-139.105 36.829-38.435 98.925-35.999 133.409 0 34.516 35.981 371.771 414.527 371.771 414.527z" />
<glyph unicode="&#xe917;" glyph-name="carret-up" data-tags="carret-up" d="M582.308 701.142c-19.209 18.398-44.368 27.613-69.544 27.613-25.194 0-50.37-9.215-69.562-27.613 0 0-378.546-337.254-414.527-371.771-35.999-34.483-38.435-96.58 0-133.409 38.365-36.812 91.966-39.752 139.088 0.033l345.001 309.393 344.965-309.393c47.122-39.785 100.723-36.845 139.105-0.033 38.435 36.829 35.999 98.925 0 133.409-35.981 34.516-414.527 371.771-414.527 371.771z" />
<glyph unicode="&#xe918;" glyph-name="close" data-tags="close" d="M884.28-16.053l46.341-46.341 92.682 92.682-928.105 928.105-92.682-92.682 46.341-46.341zM976.962 819.371l46.341 46.341-92.682 92.682-928.105-928.105 92.682-92.682 46.341 46.341z" />
</font>
</defs>
</svg>
